<mxfile host="app.diagrams.net" modified="2022-08-12T16:36:08.500Z" agent="5.0 (Windows NT 10.0; Win64; x64) AppleWebKit/537.36 (KHTML, like Gecko) Chrome/104.0.0.0 Safari/537.36" etag="yE_PmQVaXTOWFK54ej_R" version="20.2.3" type="github">
  <diagram id="6cSfCjQ-OGKTzqsPuU6-" name="Page-1">
    <mxGraphModel dx="2188" dy="1222" grid="0" gridSize="10" guides="1" tooltips="1" connect="1" arrows="1" fold="1" page="1" pageScale="1" pageWidth="827" pageHeight="1169" math="0" shadow="0">
      <root>
        <mxCell id="0" />
        <mxCell id="1" parent="0" />
        <mxCell id="M6pmH-KEsrsLaDPnZY_8-17" value="Loop: pour chaque&amp;nbsp;&lt;br&gt;departementAffectation" style="shape=umlFrame;whiteSpace=wrap;html=1;labelBackgroundColor=none;fontSize=15;fontColor=#000000;strokeColor=#000000;width=166;height=39;align=left;" vertex="1" parent="1">
          <mxGeometry x="327" y="385" width="1647" height="357" as="geometry" />
        </mxCell>
        <mxCell id="RoREXrIaqBxUGJQKk7k9-2" value="Diagramme&amp;nbsp; de séquence gestion departments TempsEtMateriel" style="shape=umlFrame;whiteSpace=wrap;html=1;rounded=0;shadow=0;glass=0;sketch=0;fontSize=15;fillColor=none;width=470;height=26;" parent="1" vertex="1">
          <mxGeometry x="26" y="1702" width="1751" height="1017" as="geometry" />
        </mxCell>
        <mxCell id="RoREXrIaqBxUGJQKk7k9-3" value=":DepartementAssignment&lt;br&gt;Controler" style="shape=umlLifeline;perimeter=lifelinePerimeter;whiteSpace=wrap;html=1;container=1;collapsible=0;recursiveResize=0;outlineConnect=0;rounded=0;shadow=0;glass=0;sketch=0;fillColor=none;fontSize=15;fontColor=#0000CC;strokeColor=#0000CC;" parent="1" vertex="1">
          <mxGeometry x="639" y="65" width="170" height="950" as="geometry" />
        </mxCell>
        <mxCell id="RoREXrIaqBxUGJQKk7k9-4" value="" style="html=1;points=[];perimeter=orthogonalPerimeter;rounded=0;shadow=0;glass=0;sketch=0;fontSize=15;fillColor=none;" parent="RoREXrIaqBxUGJQKk7k9-3" vertex="1">
          <mxGeometry x="80" y="180" width="10" height="82" as="geometry" />
        </mxCell>
        <mxCell id="RoREXrIaqBxUGJQKk7k9-5" value="" style="shape=umlLifeline;participant=umlActor;perimeter=lifelinePerimeter;whiteSpace=wrap;html=1;container=1;collapsible=0;recursiveResize=0;verticalAlign=top;spacingTop=36;outlineConnect=0;fillColor=none;size=32;sketch=0;shadow=0;rounded=0;glass=0;" parent="1" vertex="1">
          <mxGeometry x="110" y="65" width="20" height="950" as="geometry" />
        </mxCell>
        <mxCell id="RoREXrIaqBxUGJQKk7k9-6" value="&lt;span style=&quot;color: rgb(0, 0, 0); font-family: Helvetica; font-size: 12px; font-style: normal; font-variant-ligatures: normal; font-variant-caps: normal; font-weight: 400; letter-spacing: normal; orphans: 2; text-align: center; text-indent: 0px; text-transform: none; widows: 2; word-spacing: 0px; -webkit-text-stroke-width: 0px; background-color: rgb(248, 249, 250); text-decoration-thickness: initial; text-decoration-style: initial; text-decoration-color: initial; float: none; display: inline !important;&quot;&gt;Administrateur&lt;/span&gt;" style="text;whiteSpace=wrap;html=1;" parent="1" vertex="1">
          <mxGeometry x="72" y="91" width="105" height="36" as="geometry" />
        </mxCell>
        <mxCell id="RoREXrIaqBxUGJQKk7k9-7" value=":DepartementAssignment&lt;br&gt;Service" style="shape=umlLifeline;perimeter=lifelinePerimeter;whiteSpace=wrap;html=1;container=1;collapsible=0;recursiveResize=0;outlineConnect=0;rounded=0;shadow=0;glass=0;sketch=0;fillColor=none;fontSize=15;fontColor=#0000CC;strokeColor=#0000CC;" parent="1" vertex="1">
          <mxGeometry x="932" y="65" width="170" height="950" as="geometry" />
        </mxCell>
        <mxCell id="RoREXrIaqBxUGJQKk7k9-8" value="" style="html=1;points=[];perimeter=orthogonalPerimeter;rounded=0;shadow=0;glass=0;sketch=0;fontSize=15;fillColor=none;" parent="RoREXrIaqBxUGJQKk7k9-7" vertex="1">
          <mxGeometry x="80" y="188" width="10" height="66" as="geometry" />
        </mxCell>
        <mxCell id="RoREXrIaqBxUGJQKk7k9-12" value="" style="shape=umlLifeline;participant=umlBoundary;perimeter=lifelinePerimeter;whiteSpace=wrap;html=1;container=1;collapsible=0;recursiveResize=0;verticalAlign=top;spacingTop=36;outlineConnect=0;rounded=0;shadow=0;glass=0;sketch=0;fontSize=15;fillColor=none;fontColor=#CC0000;strokeColor=#CC0000;" parent="1" vertex="1">
          <mxGeometry x="286" y="65" width="65" height="950" as="geometry" />
        </mxCell>
        <mxCell id="RoREXrIaqBxUGJQKk7k9-13" value="&lt;span style=&quot;font-family: Helvetica; font-size: 15px; font-style: normal; font-variant-ligatures: normal; font-variant-caps: normal; font-weight: 400; letter-spacing: normal; orphans: 2; text-indent: 0px; text-transform: none; widows: 2; word-spacing: 0px; -webkit-text-stroke-width: 0px; text-decoration-thickness: initial; text-decoration-style: initial; text-decoration-color: initial; float: none; display: inline !important;&quot;&gt;Interface IHM&lt;/span&gt;&lt;br style=&quot;font-family: Helvetica; font-size: 15px; font-style: normal; font-variant-ligatures: normal; font-variant-caps: normal; font-weight: 400; letter-spacing: normal; orphans: 2; text-indent: 0px; text-transform: none; widows: 2; word-spacing: 0px; -webkit-text-stroke-width: 0px; text-decoration-thickness: initial; text-decoration-style: initial; text-decoration-color: initial;&quot;&gt;DepartementEmployees" style="text;whiteSpace=wrap;html=1;fontSize=15;align=center;fillColor=default;fontColor=#CC0000;" parent="RoREXrIaqBxUGJQKk7k9-12" vertex="1">
          <mxGeometry x="-24" y="45" width="122" height="45" as="geometry" />
        </mxCell>
        <mxCell id="RoREXrIaqBxUGJQKk7k9-14" value="" style="html=1;points=[];perimeter=orthogonalPerimeter;rounded=0;shadow=0;glass=0;sketch=0;fontSize=15;fillColor=none;" parent="RoREXrIaqBxUGJQKk7k9-12" vertex="1">
          <mxGeometry x="27.5" y="147" width="10" height="336" as="geometry" />
        </mxCell>
        <mxCell id="RoREXrIaqBxUGJQKk7k9-15" value=":GradeAssignment&lt;br&gt;Controler" style="shape=umlLifeline;perimeter=lifelinePerimeter;whiteSpace=wrap;html=1;container=1;collapsible=0;recursiveResize=0;outlineConnect=0;rounded=0;shadow=0;glass=0;sketch=0;fillColor=none;fontSize=15;strokeColor=#0000CC;fontColor=#0000CC;" parent="1" vertex="1">
          <mxGeometry x="1130" y="66" width="130" height="950" as="geometry" />
        </mxCell>
        <mxCell id="RoREXrIaqBxUGJQKk7k9-16" value="" style="html=1;points=[];perimeter=orthogonalPerimeter;rounded=0;shadow=0;glass=0;sketch=0;fontSize=15;fillColor=none;" parent="RoREXrIaqBxUGJQKk7k9-15" vertex="1">
          <mxGeometry x="60" y="343" width="10" height="95" as="geometry" />
        </mxCell>
        <mxCell id="RoREXrIaqBxUGJQKk7k9-17" value="" style="shape=umlLifeline;participant=umlEntity;perimeter=lifelinePerimeter;whiteSpace=wrap;html=1;container=1;collapsible=0;recursiveResize=0;verticalAlign=top;spacingTop=36;outlineConnect=0;rounded=0;shadow=0;glass=0;sketch=0;fontSize=15;fillColor=none;strokeColor=#0000CC;" parent="1" vertex="1">
          <mxGeometry x="2003" y="68" width="65" height="950" as="geometry" />
        </mxCell>
        <mxCell id="RoREXrIaqBxUGJQKk7k9-18" value="Base de donnée&lt;br&gt;Personnel" style="text;whiteSpace=wrap;html=1;fontSize=15;align=center;fillColor=default;fontColor=#0000CC;labelBackgroundColor=none;" parent="RoREXrIaqBxUGJQKk7k9-17" vertex="1">
          <mxGeometry x="-33" y="45" width="127" height="48" as="geometry" />
        </mxCell>
        <mxCell id="RoREXrIaqBxUGJQKk7k9-19" value="" style="html=1;points=[];perimeter=orthogonalPerimeter;rounded=0;shadow=0;glass=0;sketch=0;fontSize=15;fillColor=none;" parent="RoREXrIaqBxUGJQKk7k9-17" vertex="1">
          <mxGeometry x="27.5" y="367" width="10" height="55" as="geometry" />
        </mxCell>
        <mxCell id="RoREXrIaqBxUGJQKk7k9-20" value=":GradeAssignment&lt;br&gt;Service" style="shape=umlLifeline;perimeter=lifelinePerimeter;whiteSpace=wrap;html=1;container=1;collapsible=0;recursiveResize=0;outlineConnect=0;rounded=0;shadow=0;glass=0;sketch=0;fillColor=none;fontSize=15;strokeColor=#0000CC;fontColor=#0000CC;" parent="1" vertex="1">
          <mxGeometry x="1383" y="65" width="130" height="950" as="geometry" />
        </mxCell>
        <mxCell id="RoREXrIaqBxUGJQKk7k9-22" value="" style="edgeStyle=elbowEdgeStyle;fontSize=12;html=1;endArrow=blockThin;endFill=1;rounded=0;" parent="1" source="RoREXrIaqBxUGJQKk7k9-5" target="RoREXrIaqBxUGJQKk7k9-14" edge="1">
          <mxGeometry width="160" relative="1" as="geometry">
            <mxPoint x="118.68181818181847" y="229" as="sourcePoint" />
            <mxPoint x="319.5" y="229" as="targetPoint" />
            <Array as="points">
              <mxPoint x="159" y="229" />
              <mxPoint x="190" y="214" />
              <mxPoint x="171" y="187" />
            </Array>
          </mxGeometry>
        </mxCell>
        <mxCell id="RoREXrIaqBxUGJQKk7k9-23" value="demander liste employees" style="edgeLabel;html=1;align=center;verticalAlign=middle;resizable=0;points=[];fontSize=15;" parent="RoREXrIaqBxUGJQKk7k9-22" vertex="1" connectable="0">
          <mxGeometry x="-0.3952" relative="1" as="geometry">
            <mxPoint x="37" y="-13" as="offset" />
          </mxGeometry>
        </mxCell>
        <mxCell id="RoREXrIaqBxUGJQKk7k9-24" value="" style="edgeStyle=elbowEdgeStyle;fontSize=12;html=1;endArrow=blockThin;endFill=1;rounded=0;" parent="1" source="RoREXrIaqBxUGJQKk7k9-44" target="RoREXrIaqBxUGJQKk7k9-4" edge="1">
          <mxGeometry width="160" relative="1" as="geometry">
            <mxPoint x="705" y="237" as="sourcePoint" />
            <mxPoint x="810" y="443" as="targetPoint" />
            <Array as="points">
              <mxPoint x="615" y="257" />
              <mxPoint x="570" y="270" />
              <mxPoint x="653" y="328" />
              <mxPoint x="734" y="297" />
              <mxPoint x="617" y="291" />
              <mxPoint x="599" y="304" />
            </Array>
          </mxGeometry>
        </mxCell>
        <mxCell id="RoREXrIaqBxUGJQKk7k9-25" value="query(request)" style="edgeLabel;html=1;align=center;verticalAlign=middle;resizable=0;points=[];fontSize=15;" parent="RoREXrIaqBxUGJQKk7k9-24" vertex="1" connectable="0">
          <mxGeometry x="-0.2194" y="3" relative="1" as="geometry">
            <mxPoint x="13" y="-9" as="offset" />
          </mxGeometry>
        </mxCell>
        <mxCell id="RoREXrIaqBxUGJQKk7k9-26" value="" style="edgeStyle=elbowEdgeStyle;fontSize=12;html=1;endArrow=blockThin;endFill=1;rounded=0;" parent="1" source="RoREXrIaqBxUGJQKk7k9-4" target="RoREXrIaqBxUGJQKk7k9-8" edge="1">
          <mxGeometry width="160" relative="1" as="geometry">
            <mxPoint x="567" y="355" as="sourcePoint" />
            <mxPoint x="727" y="355" as="targetPoint" />
            <Array as="points">
              <mxPoint x="944" y="266" />
              <mxPoint x="874" y="273" />
              <mxPoint x="775" y="293" />
              <mxPoint x="700" y="322" />
            </Array>
          </mxGeometry>
        </mxCell>
        <mxCell id="RoREXrIaqBxUGJQKk7k9-27" value="getAll&lt;span style=&quot;&quot;&gt;DepartementAssignment&lt;/span&gt;(&lt;span style=&quot;background-color: rgb(255, 255, 255);&quot;&gt;ciriteria&lt;/span&gt;)" style="edgeLabel;html=1;align=center;verticalAlign=middle;resizable=0;points=[];fontSize=15;labelBackgroundColor=none;" parent="RoREXrIaqBxUGJQKk7k9-26" vertex="1" connectable="0">
          <mxGeometry x="0.1239" relative="1" as="geometry">
            <mxPoint x="-17" y="-14" as="offset" />
          </mxGeometry>
        </mxCell>
        <mxCell id="RoREXrIaqBxUGJQKk7k9-28" value="" style="edgeStyle=elbowEdgeStyle;fontSize=12;html=1;endArrow=blockThin;endFill=1;rounded=0;" parent="1" source="RoREXrIaqBxUGJQKk7k9-8" target="RoREXrIaqBxUGJQKk7k9-17" edge="1">
          <mxGeometry width="160" relative="1" as="geometry">
            <mxPoint x="647" y="355" as="sourcePoint" />
            <mxPoint x="1188" y="313" as="targetPoint" />
            <Array as="points">
              <mxPoint x="1196" y="275" />
              <mxPoint x="1042" y="313" />
              <mxPoint x="939" y="318" />
            </Array>
          </mxGeometry>
        </mxCell>
        <mxCell id="RoREXrIaqBxUGJQKk7k9-29" value="findByCriteria(criteria)" style="edgeLabel;html=1;align=center;verticalAlign=middle;resizable=0;points=[];fontSize=15;" parent="RoREXrIaqBxUGJQKk7k9-28" vertex="1" connectable="0">
          <mxGeometry x="-0.3561" y="2" relative="1" as="geometry">
            <mxPoint x="3" y="-13" as="offset" />
          </mxGeometry>
        </mxCell>
        <mxCell id="RoREXrIaqBxUGJQKk7k9-31" value="departementAffectations" style="html=1;verticalAlign=bottom;endArrow=open;dashed=1;endSize=8;rounded=0;fontSize=15;" parent="1" source="RoREXrIaqBxUGJQKk7k9-8" target="RoREXrIaqBxUGJQKk7k9-4" edge="1">
          <mxGeometry relative="1" as="geometry">
            <mxPoint x="831" y="347" as="sourcePoint" />
            <mxPoint x="650" y="347" as="targetPoint" />
            <Array as="points">
              <mxPoint x="989" y="314" />
            </Array>
          </mxGeometry>
        </mxCell>
        <mxCell id="RoREXrIaqBxUGJQKk7k9-32" value="departementAffectations" style="html=1;verticalAlign=bottom;endArrow=open;dashed=1;endSize=8;rounded=0;fontSize=15;" parent="1" source="RoREXrIaqBxUGJQKk7k9-4" target="RoREXrIaqBxUGJQKk7k9-44" edge="1">
          <mxGeometry x="-0.0189" y="-3" relative="1" as="geometry">
            <mxPoint x="652" y="359" as="sourcePoint" />
            <mxPoint x="471" y="359" as="targetPoint" />
            <Array as="points">
              <mxPoint x="629" y="319" />
              <mxPoint x="562" y="319" />
            </Array>
            <mxPoint as="offset" />
          </mxGeometry>
        </mxCell>
        <mxCell id="RoREXrIaqBxUGJQKk7k9-43" value=":Serveur d&#39;application&lt;br&gt;DepartementEmployees" style="shape=umlLifeline;perimeter=lifelinePerimeter;whiteSpace=wrap;html=1;container=1;collapsible=0;recursiveResize=0;outlineConnect=0;rounded=0;shadow=0;glass=0;sketch=0;fillColor=none;fontSize=15;fontColor=#CC0000;strokeColor=#CC0000;" parent="1" vertex="1">
          <mxGeometry x="430" y="65" width="166" height="950" as="geometry" />
        </mxCell>
        <mxCell id="RoREXrIaqBxUGJQKk7k9-44" value="" style="html=1;points=[];perimeter=orthogonalPerimeter;fontSize=15;fillColor=none;rounded=0;shadow=0;glass=0;sketch=0;" parent="RoREXrIaqBxUGJQKk7k9-43" vertex="1">
          <mxGeometry x="78" y="166" width="10" height="482" as="geometry" />
        </mxCell>
        <mxCell id="M6pmH-KEsrsLaDPnZY_8-20" value="loadOtherAssignments" style="edgeStyle=orthogonalEdgeStyle;html=1;align=left;spacingLeft=2;endArrow=block;rounded=0;fontSize=15;fontColor=#000000;labelBackgroundColor=none;" edge="1" target="RoREXrIaqBxUGJQKk7k9-44" parent="RoREXrIaqBxUGJQKk7k9-43" source="RoREXrIaqBxUGJQKk7k9-44">
          <mxGeometry relative="1" as="geometry">
            <mxPoint x="88" y="327" as="sourcePoint" />
            <Array as="points">
              <mxPoint x="118" y="327" />
              <mxPoint x="118" y="347" />
            </Array>
            <mxPoint x="93" y="347" as="targetPoint" />
          </mxGeometry>
        </mxCell>
        <mxCell id="RoREXrIaqBxUGJQKk7k9-46" value="" style="fontSize=12;html=1;endArrow=blockThin;endFill=1;rounded=0;" parent="1" source="RoREXrIaqBxUGJQKk7k9-14" target="RoREXrIaqBxUGJQKk7k9-44" edge="1">
          <mxGeometry width="160" relative="1" as="geometry">
            <mxPoint x="268.5" y="289" as="sourcePoint" />
            <mxPoint x="599" y="417" as="targetPoint" />
            <Array as="points">
              <mxPoint x="431" y="246" />
            </Array>
          </mxGeometry>
        </mxCell>
        <mxCell id="RoREXrIaqBxUGJQKk7k9-47" value="loadAssignments()" style="edgeLabel;html=1;align=center;verticalAlign=middle;resizable=0;points=[];fontSize=15;" parent="RoREXrIaqBxUGJQKk7k9-46" vertex="1" connectable="0">
          <mxGeometry x="-0.0064" y="-3" relative="1" as="geometry">
            <mxPoint x="-4" y="-16" as="offset" />
          </mxGeometry>
        </mxCell>
        <mxCell id="RoREXrIaqBxUGJQKk7k9-51" value="ref" style="shape=umlFrame;whiteSpace=wrap;html=1;labelBackgroundColor=none;fontSize=15;" parent="1" vertex="1">
          <mxGeometry x="60" y="1111" width="1693" height="55" as="geometry" />
        </mxCell>
        <mxCell id="RoREXrIaqBxUGJQKk7k9-52" value="ajouter departement" style="text;html=1;strokeColor=none;fillColor=none;align=center;verticalAlign=middle;whiteSpace=wrap;rounded=0;labelBackgroundColor=none;fontSize=15;fontColor=#000000;" parent="1" vertex="1">
          <mxGeometry x="800" y="1121" width="283" height="30" as="geometry" />
        </mxCell>
        <mxCell id="RoREXrIaqBxUGJQKk7k9-53" value="ref" style="shape=umlFrame;whiteSpace=wrap;html=1;labelBackgroundColor=none;fontSize=15;" parent="1" vertex="1">
          <mxGeometry x="60" y="1155" width="1693" height="55" as="geometry" />
        </mxCell>
        <mxCell id="RoREXrIaqBxUGJQKk7k9-54" value="modifier departement" style="text;html=1;strokeColor=none;fillColor=none;align=center;verticalAlign=middle;whiteSpace=wrap;rounded=0;labelBackgroundColor=none;fontSize=15;fontColor=#000000;" parent="1" vertex="1">
          <mxGeometry x="800" y="1162" width="283" height="30" as="geometry" />
        </mxCell>
        <mxCell id="RoREXrIaqBxUGJQKk7k9-55" value="ref" style="shape=umlFrame;whiteSpace=wrap;html=1;labelBackgroundColor=none;fontSize=15;" parent="1" vertex="1">
          <mxGeometry x="60" y="1240" width="1692" height="55" as="geometry" />
        </mxCell>
        <mxCell id="RoREXrIaqBxUGJQKk7k9-56" value="supprimer departement" style="text;html=1;strokeColor=none;fillColor=none;align=center;verticalAlign=middle;whiteSpace=wrap;rounded=0;labelBackgroundColor=none;fontSize=15;fontColor=#000000;" parent="1" vertex="1">
          <mxGeometry x="800" y="1243" width="283" height="30" as="geometry" />
        </mxCell>
        <mxCell id="RoREXrIaqBxUGJQKk7k9-57" value="ref" style="shape=umlFrame;whiteSpace=wrap;html=1;labelBackgroundColor=none;fontSize=15;" parent="1" vertex="1">
          <mxGeometry x="60" y="1325" width="1692" height="55" as="geometry" />
        </mxCell>
        <mxCell id="RoREXrIaqBxUGJQKk7k9-58" value="consulter departement" style="text;html=1;strokeColor=none;fillColor=none;align=center;verticalAlign=middle;whiteSpace=wrap;rounded=0;labelBackgroundColor=none;fontSize=15;fontColor=#000000;" parent="1" vertex="1">
          <mxGeometry x="800" y="1322" width="283" height="30" as="geometry" />
        </mxCell>
        <mxCell id="M6pmH-KEsrsLaDPnZY_8-1" value=":RoleAssignment&lt;br&gt;Controler" style="shape=umlLifeline;perimeter=lifelinePerimeter;whiteSpace=wrap;html=1;container=1;collapsible=0;recursiveResize=0;outlineConnect=0;rounded=0;shadow=0;glass=0;sketch=0;fillColor=none;fontSize=15;strokeColor=#0000CC;fontColor=#0000CC;" vertex="1" parent="1">
          <mxGeometry x="1560" y="66" width="130" height="950" as="geometry" />
        </mxCell>
        <mxCell id="M6pmH-KEsrsLaDPnZY_8-2" value="" style="html=1;points=[];perimeter=orthogonalPerimeter;rounded=0;shadow=0;glass=0;sketch=0;fontSize=15;fillColor=none;" vertex="1" parent="M6pmH-KEsrsLaDPnZY_8-1">
          <mxGeometry x="60" y="446" width="10" height="86" as="geometry" />
        </mxCell>
        <mxCell id="M6pmH-KEsrsLaDPnZY_8-3" value=":RoleAssignment&lt;br&gt;Service" style="shape=umlLifeline;perimeter=lifelinePerimeter;whiteSpace=wrap;html=1;container=1;collapsible=0;recursiveResize=0;outlineConnect=0;rounded=0;shadow=0;glass=0;sketch=0;fillColor=none;fontSize=15;strokeColor=#0000CC;fontColor=#0000CC;" vertex="1" parent="1">
          <mxGeometry x="1785" y="66" width="130" height="950" as="geometry" />
        </mxCell>
        <mxCell id="M6pmH-KEsrsLaDPnZY_8-4" value="" style="html=1;points=[];perimeter=orthogonalPerimeter;rounded=0;shadow=0;glass=0;sketch=0;fontSize=15;fillColor=none;" vertex="1" parent="M6pmH-KEsrsLaDPnZY_8-3">
          <mxGeometry x="60" y="457" width="10" height="70" as="geometry" />
        </mxCell>
        <mxCell id="M6pmH-KEsrsLaDPnZY_8-8" value="&lt;font style=&quot;font-size: 15px;&quot;&gt;departementAffectations&lt;/font&gt;" style="html=1;verticalAlign=bottom;endArrow=open;dashed=1;endSize=8;rounded=0;fontColor=#000000;" edge="1" parent="1" source="RoREXrIaqBxUGJQKk7k9-17" target="RoREXrIaqBxUGJQKk7k9-8">
          <mxGeometry x="0.3572" y="-4" relative="1" as="geometry">
            <mxPoint x="1448" y="427" as="sourcePoint" />
            <mxPoint x="1368" y="427" as="targetPoint" />
            <Array as="points">
              <mxPoint x="1463" y="308" />
            </Array>
            <mxPoint as="offset" />
          </mxGeometry>
        </mxCell>
        <mxCell id="M6pmH-KEsrsLaDPnZY_8-9" value="" style="edgeStyle=elbowEdgeStyle;fontSize=12;html=1;endArrow=blockThin;endFill=1;rounded=0;fontColor=#000000;" edge="1" parent="1" target="RoREXrIaqBxUGJQKk7k9-16">
          <mxGeometry width="160" relative="1" as="geometry">
            <mxPoint x="518" y="423.0000000000002" as="sourcePoint" />
            <mxPoint x="1002" y="475" as="targetPoint" />
            <Array as="points">
              <mxPoint x="784" y="423" />
              <mxPoint x="965" y="396" />
            </Array>
          </mxGeometry>
        </mxCell>
        <mxCell id="M6pmH-KEsrsLaDPnZY_8-10" value="query(request)" style="edgeLabel;html=1;align=center;verticalAlign=middle;resizable=0;points=[];fontSize=15;fontColor=#000000;labelBackgroundColor=none;" vertex="1" connectable="0" parent="M6pmH-KEsrsLaDPnZY_8-9">
          <mxGeometry x="-0.0114" relative="1" as="geometry">
            <mxPoint x="7" y="-13" as="offset" />
          </mxGeometry>
        </mxCell>
        <mxCell id="M6pmH-KEsrsLaDPnZY_8-11" value="" style="edgeStyle=elbowEdgeStyle;fontSize=12;html=1;endArrow=blockThin;endFill=1;rounded=0;fontColor=#000000;startArrow=none;" edge="1" parent="1" source="RoREXrIaqBxUGJQKk7k9-16" target="RoREXrIaqBxUGJQKk7k9-21">
          <mxGeometry width="160" relative="1" as="geometry">
            <mxPoint x="1373" y="439" as="sourcePoint" />
            <mxPoint x="1533" y="439" as="targetPoint" />
            <Array as="points">
              <mxPoint x="1340" y="439" />
              <mxPoint x="1416" y="412" />
            </Array>
          </mxGeometry>
        </mxCell>
        <mxCell id="M6pmH-KEsrsLaDPnZY_8-13" value="&lt;span style=&quot;background-color: rgb(248, 249, 250);&quot;&gt;getAllGrade&lt;/span&gt;&lt;span style=&quot;background-color: rgb(248, 249, 250);&quot;&gt;Assignment&lt;/span&gt;&lt;span style=&quot;background-color: rgb(248, 249, 250);&quot;&gt;(&lt;/span&gt;ciriteria&lt;span style=&quot;background-color: rgb(248, 249, 250);&quot;&gt;)&lt;/span&gt;" style="edgeLabel;html=1;align=center;verticalAlign=middle;resizable=0;points=[];fontSize=15;fontColor=#000000;" vertex="1" connectable="0" parent="M6pmH-KEsrsLaDPnZY_8-11">
          <mxGeometry x="-0.2612" y="1" relative="1" as="geometry">
            <mxPoint x="29" y="-12" as="offset" />
          </mxGeometry>
        </mxCell>
        <mxCell id="RoREXrIaqBxUGJQKk7k9-21" value="" style="html=1;points=[];perimeter=orthogonalPerimeter;rounded=0;shadow=0;glass=0;sketch=0;fontSize=15;fillColor=none;" parent="1" vertex="1">
          <mxGeometry x="1443" y="417" width="10" height="75" as="geometry" />
        </mxCell>
        <mxCell id="M6pmH-KEsrsLaDPnZY_8-14" value="" style="edgeStyle=elbowEdgeStyle;fontSize=12;html=1;endArrow=blockThin;endFill=1;rounded=0;fontColor=#000000;" edge="1" parent="1" source="RoREXrIaqBxUGJQKk7k9-21" target="RoREXrIaqBxUGJQKk7k9-19">
          <mxGeometry width="160" relative="1" as="geometry">
            <mxPoint x="1814" y="436" as="sourcePoint" />
            <mxPoint x="1974" y="436" as="targetPoint" />
            <Array as="points">
              <mxPoint x="1651" y="448" />
              <mxPoint x="1813" y="421" />
            </Array>
          </mxGeometry>
        </mxCell>
        <mxCell id="M6pmH-KEsrsLaDPnZY_8-15" value="findByCriteria(criteria)" style="edgeLabel;html=1;align=center;verticalAlign=middle;resizable=0;points=[];fontSize=15;fontColor=#000000;" vertex="1" connectable="0" parent="M6pmH-KEsrsLaDPnZY_8-14">
          <mxGeometry x="0.1202" y="2" relative="1" as="geometry">
            <mxPoint x="-12" y="-9" as="offset" />
          </mxGeometry>
        </mxCell>
        <mxCell id="M6pmH-KEsrsLaDPnZY_8-16" value="rolesAffectations" style="html=1;verticalAlign=bottom;endArrow=open;dashed=1;endSize=8;rounded=0;fontSize=15;fontColor=#000000;" edge="1" parent="1" source="RoREXrIaqBxUGJQKk7k9-19" target="RoREXrIaqBxUGJQKk7k9-21">
          <mxGeometry x="-0.0752" relative="1" as="geometry">
            <mxPoint x="1558" y="324" as="sourcePoint" />
            <mxPoint x="1478" y="324" as="targetPoint" />
            <Array as="points">
              <mxPoint x="1778" y="476" />
            </Array>
            <mxPoint as="offset" />
          </mxGeometry>
        </mxCell>
        <mxCell id="M6pmH-KEsrsLaDPnZY_8-21" value="rolesAffectations" style="html=1;verticalAlign=bottom;endArrow=open;dashed=1;endSize=8;rounded=0;fontSize=15;fontColor=#000000;" edge="1" parent="1" source="RoREXrIaqBxUGJQKk7k9-21" target="RoREXrIaqBxUGJQKk7k9-16">
          <mxGeometry x="-0.0752" relative="1" as="geometry">
            <mxPoint x="1427.5" y="509" as="sourcePoint" />
            <mxPoint x="941.9999999999995" y="509" as="targetPoint" />
            <Array as="points">
              <mxPoint x="1256" y="490" />
            </Array>
            <mxPoint as="offset" />
          </mxGeometry>
        </mxCell>
        <mxCell id="M6pmH-KEsrsLaDPnZY_8-22" value="rolesAffectations" style="html=1;verticalAlign=bottom;endArrow=open;dashed=1;endSize=8;rounded=0;fontSize=15;fontColor=#000000;" edge="1" parent="1" source="RoREXrIaqBxUGJQKk7k9-16" target="RoREXrIaqBxUGJQKk7k9-44">
          <mxGeometry x="-0.0752" relative="1" as="geometry">
            <mxPoint x="1134.5" y="498" as="sourcePoint" />
            <mxPoint x="648.9999999999995" y="498" as="targetPoint" />
            <Array as="points">
              <mxPoint x="974" y="498" />
            </Array>
            <mxPoint as="offset" />
          </mxGeometry>
        </mxCell>
        <mxCell id="M6pmH-KEsrsLaDPnZY_8-23" value="" style="edgeStyle=elbowEdgeStyle;fontSize=12;html=1;endArrow=blockThin;endFill=1;rounded=0;fontColor=#000000;" edge="1" parent="1" source="RoREXrIaqBxUGJQKk7k9-44" target="M6pmH-KEsrsLaDPnZY_8-2">
          <mxGeometry width="160" relative="1" as="geometry">
            <mxPoint x="525" y="548.0000000000002" as="sourcePoint" />
            <mxPoint x="1197.0000000000005" y="548" as="targetPoint" />
            <Array as="points">
              <mxPoint x="603" y="525" />
              <mxPoint x="791" y="548" />
              <mxPoint x="972" y="521" />
            </Array>
          </mxGeometry>
        </mxCell>
        <mxCell id="M6pmH-KEsrsLaDPnZY_8-24" value="query(request)" style="edgeLabel;html=1;align=center;verticalAlign=middle;resizable=0;points=[];fontSize=15;fontColor=#000000;labelBackgroundColor=none;" vertex="1" connectable="0" parent="M6pmH-KEsrsLaDPnZY_8-23">
          <mxGeometry x="-0.0114" relative="1" as="geometry">
            <mxPoint x="7" y="-13" as="offset" />
          </mxGeometry>
        </mxCell>
      </root>
    </mxGraphModel>
  </diagram>
</mxfile>
